<mxfile host="app.diagrams.net" agent="Mozilla/5.0 (Windows NT 10.0; Win64; x64) AppleWebKit/537.36 (KHTML, like Gecko) Chrome/141.0.0.0 Safari/537.36 Edg/141.0.0.0" version="28.2.5">
  <diagram name="Página-1" id="UWn3LQaGXifSj93x98GH">
    <mxGraphModel dx="456" dy="778" grid="1" gridSize="10" guides="1" tooltips="1" connect="1" arrows="1" fold="1" page="1" pageScale="1" pageWidth="827" pageHeight="1169" math="0" shadow="0">
      <root>
        <mxCell id="0" />
        <mxCell id="1" parent="0" />
        <mxCell id="5FxN96z_83LG-2p30XqT-1" value="I" style="ellipse;whiteSpace=wrap;html=1;" vertex="1" parent="1">
          <mxGeometry x="480" y="100" width="120" height="80" as="geometry" />
        </mxCell>
        <mxCell id="5FxN96z_83LG-2p30XqT-6" value="" style="edgeStyle=orthogonalEdgeStyle;rounded=0;orthogonalLoop=1;jettySize=auto;html=1;" edge="1" parent="1" source="5FxN96z_83LG-2p30XqT-3" target="5FxN96z_83LG-2p30XqT-5">
          <mxGeometry relative="1" as="geometry" />
        </mxCell>
        <mxCell id="5FxN96z_83LG-2p30XqT-3" value="C = 0&lt;div&gt;M = 0&lt;/div&gt;" style="rounded=0;whiteSpace=wrap;html=1;" vertex="1" parent="1">
          <mxGeometry x="480" y="240" width="120" height="60" as="geometry" />
        </mxCell>
        <mxCell id="5FxN96z_83LG-2p30XqT-8" value="" style="edgeStyle=orthogonalEdgeStyle;rounded=0;orthogonalLoop=1;jettySize=auto;html=1;" edge="1" parent="1" source="5FxN96z_83LG-2p30XqT-5" target="5FxN96z_83LG-2p30XqT-7">
          <mxGeometry relative="1" as="geometry" />
        </mxCell>
        <mxCell id="5FxN96z_83LG-2p30XqT-5" value="Pedir N" style="shape=parallelogram;perimeter=parallelogramPerimeter;whiteSpace=wrap;html=1;fixedSize=1;rounded=0;" vertex="1" parent="1">
          <mxGeometry x="480" y="380" width="120" height="60" as="geometry" />
        </mxCell>
        <mxCell id="5FxN96z_83LG-2p30XqT-10" value="" style="edgeStyle=orthogonalEdgeStyle;rounded=0;orthogonalLoop=1;jettySize=auto;html=1;" edge="1" parent="1" source="5FxN96z_83LG-2p30XqT-7" target="5FxN96z_83LG-2p30XqT-9">
          <mxGeometry relative="1" as="geometry" />
        </mxCell>
        <mxCell id="5FxN96z_83LG-2p30XqT-7" value="C = C+1" style="rounded=0;whiteSpace=wrap;html=1;" vertex="1" parent="1">
          <mxGeometry x="480" y="510" width="120" height="60" as="geometry" />
        </mxCell>
        <mxCell id="5FxN96z_83LG-2p30XqT-12" value="" style="edgeStyle=orthogonalEdgeStyle;rounded=0;orthogonalLoop=1;jettySize=auto;html=1;" edge="1" parent="1" source="5FxN96z_83LG-2p30XqT-9" target="5FxN96z_83LG-2p30XqT-11">
          <mxGeometry relative="1" as="geometry" />
        </mxCell>
        <mxCell id="5FxN96z_83LG-2p30XqT-9" value="Escrever N &quot;x&quot; C &quot;=&quot; N*C" style="shape=parallelogram;perimeter=parallelogramPerimeter;whiteSpace=wrap;html=1;fixedSize=1;rounded=0;" vertex="1" parent="1">
          <mxGeometry x="465" y="640" width="150" height="60" as="geometry" />
        </mxCell>
        <mxCell id="5FxN96z_83LG-2p30XqT-13" style="edgeStyle=orthogonalEdgeStyle;rounded=0;orthogonalLoop=1;jettySize=auto;html=1;" edge="1" parent="1" source="5FxN96z_83LG-2p30XqT-11" target="5FxN96z_83LG-2p30XqT-7">
          <mxGeometry relative="1" as="geometry">
            <Array as="points">
              <mxPoint x="770" y="540" />
            </Array>
          </mxGeometry>
        </mxCell>
        <mxCell id="5FxN96z_83LG-2p30XqT-14" value="Não" style="edgeLabel;html=1;align=center;verticalAlign=middle;resizable=0;points=[];" vertex="1" connectable="0" parent="5FxN96z_83LG-2p30XqT-13">
          <mxGeometry x="-0.4615" y="1" relative="1" as="geometry">
            <mxPoint as="offset" />
          </mxGeometry>
        </mxCell>
        <mxCell id="5FxN96z_83LG-2p30XqT-17" value="" style="edgeStyle=orthogonalEdgeStyle;rounded=0;orthogonalLoop=1;jettySize=auto;html=1;" edge="1" parent="1" source="5FxN96z_83LG-2p30XqT-11" target="5FxN96z_83LG-2p30XqT-16">
          <mxGeometry relative="1" as="geometry" />
        </mxCell>
        <mxCell id="5FxN96z_83LG-2p30XqT-18" value="Sim" style="edgeLabel;html=1;align=center;verticalAlign=middle;resizable=0;points=[];" vertex="1" connectable="0" parent="5FxN96z_83LG-2p30XqT-17">
          <mxGeometry x="-0.2" y="-2" relative="1" as="geometry">
            <mxPoint as="offset" />
          </mxGeometry>
        </mxCell>
        <mxCell id="5FxN96z_83LG-2p30XqT-11" value="C = 10" style="rhombus;whiteSpace=wrap;html=1;rounded=0;" vertex="1" parent="1">
          <mxGeometry x="730" y="630" width="80" height="80" as="geometry" />
        </mxCell>
        <mxCell id="5FxN96z_83LG-2p30XqT-16" value="F" style="ellipse;whiteSpace=wrap;html=1;" vertex="1" parent="1">
          <mxGeometry x="920" y="630" width="120" height="80" as="geometry" />
        </mxCell>
      </root>
    </mxGraphModel>
  </diagram>
</mxfile>
